<?xml version="1.0" encoding="utf-8"?>
<!-- Generator: Adobe Illustrator 18.1.1, SVG Export Plug-In . SVG Version: 6.00 Build 0)  -->
<!DOCTYPE svg PUBLIC "-//W3C//DTD SVG 1.1//EN" "http://www.w3.org/Graphics/SVG/1.1/DTD/svg11.dtd">
<svg version="1.1" id="Layer_0_xA0_Image_1_" xmlns="http://www.w3.org/2000/svg" xmlns:xlink="http://www.w3.org/1999/xlink"
	 x="0px" y="0px" viewBox="0 0 100 100" enable-background="new 0 0 100 100" xml:space="preserve">
	<path fill="#fff" d="M100.1,52.3c0,0.5-0.1,1-0.1,1.5c-0.2,4.1-0.9,8.1-2,12c-0.6,2-1.3,4-2.1,5.9c-0.9,2-1.8,4-3,5.9c-0.6,1-1.2,1.9-1.8,2.8
		c-0.7,1.1-1.5,2.1-2.3,3.1c-0.8,1-1.6,1.9-2.4,2.8c-0.9,1-1.9,2-2.9,3c-1.1,1-2.3,1.9-3.4,2.9c-1.3,1.2-2.8,2-4.3,3
		c-1.7,1.2-3.6,2.1-5.5,2.9c-1.4,0.6-2.8,1.2-4.2,1.8c-0.9,0.4-1.8,0.3-2.6-0.3c-0.7-0.5-0.9-1.3-0.9-2.2c0-1.3,0-2.5,0-3.8
		c0-3.3,0.1-6.5,0.1-9.8c0-2.1-0.2-4.2-1-6.1c-0.3-0.8-0.8-1.6-1.3-2.4c-0.3-0.4-0.6-0.8-0.9-1.3c0.3,0,0.6-0.1,1-0.1
		c2.6-0.2,5.2-0.8,7.6-1.8c2-0.8,3.9-1.7,5.7-3c1.2-0.9,2.4-1.7,3.3-2.9c0.6-0.8,1.2-1.6,1.7-2.5c1.1-1.9,1.8-4,2.3-6.1
		c0.6-2.5,0.9-5.1,1-7.7c0.1-2.9-0.3-5.8-1.3-8.6c-0.6-1.5-1.3-3-2.3-4.3c-0.5-0.6-1-1.3-1.4-1.9C77,35,76.9,34.9,77,34.8
		c0.5-1.3,0.7-2.7,0.8-4c0.4-2.9-0.2-5.7-1.1-8.5c-0.1-0.2-0.2-0.5-0.2-0.7c-0.1-0.4-0.3-0.5-0.7-0.5c-0.6,0-1.1,0-1.7,0.1
		c-1,0.2-2,0.2-2.9,0.6c-1.8,0.7-3.5,1.6-5.1,2.5c-1.1,0.6-2.2,1.3-3.2,2c-0.2,0.1-0.4,0.2-0.6,0.1c-2.9-0.8-5.8-1.3-8.8-1.4
		c-1.5-0.1-2.9-0.1-4.4-0.2c-0.6,0-1.2,0-1.8,0.1c-3.2,0.4-6.4,0.7-9.5,1.6c-0.1,0-0.3,0-0.5-0.1c-1.7-1.1-3.4-2.2-5.3-3.1
		c-0.8-0.4-1.6-0.7-2.4-1.1c-1.6-0.8-3.4-0.9-5.2-1.1c-0.7-0.1-0.7,0-1,0.7c-0.6,1.9-1.1,3.8-1.3,5.8c-0.2,1.6,0,3.3,0.3,4.9
		c0.1,0.8,0.4,1.6,0.6,2.3c0,0.1,0,0.2-0.1,0.3c-1.1,1.3-2.1,2.7-2.8,4.2c-1,2-1.6,4.2-2,6.4c-0.4,2.8-0.2,5.6,0.2,8.3
		c0.3,2.4,0.8,4.7,1.6,6.9c0.7,1.8,1.5,3.4,2.7,4.9c0.8,1,1.8,1.9,2.8,2.7c1.8,1.4,3.8,2.4,5.9,3.3c2.6,1.2,5.3,1.7,8.1,2
		c0.4,0,0.7,0.1,1.1,0.1c-0.3,0.4-0.7,0.8-1,1.2c-1.2,1.6-1.7,3.5-2.1,5.4c0,0.1-0.2,0.3-0.3,0.4c-1.2,0.6-2.4,0.9-3.7,1
		c-1.2,0.1-2.5,0.2-3.7,0c-1-0.2-2-0.5-2.8-1.1c-1.2-0.8-2.2-1.8-3.1-3c-0.6-0.8-1.1-1.6-1.7-2.4c-0.7-1-1.5-1.9-2.6-2.6
		c-0.3-0.2-0.6-0.4-1-0.6c-1-0.6-2.1-0.9-3.3-1.1c-0.8-0.1-1.5,0.2-2.2,0.5c-0.3,0.1-0.3,0.5-0.1,0.9c0.3,0.4,0.6,0.8,0.9,1.1
		c0.4,0.3,0.8,0.6,1.2,0.9c1.1,0.9,2.3,1.8,3,3c0.8,1.3,1.7,2.6,2.2,4.1c0.6,1.9,2.1,3.1,3.4,4.5c1.4,1.5,3.3,1.9,5.3,2.2
		c2.6,0.3,5.1,0.1,7.7-0.3c0.1,0,0.3,0,0.4,0c0,0,0.1,0,0.2,0c0,0.9,0,1.8,0,2.6c0,2.2,0,4.4,0.1,6.6c0,0.9-0.2,1.7-0.9,2.2
		c-0.8,0.6-1.6,0.7-2.5,0.4c-1.3-0.5-2.6-0.9-3.8-1.5c-1.8-0.8-3.5-1.7-5.2-2.7c-1.6-0.9-3.1-2-4.6-3.1c-1.2-0.8-2.3-1.8-3.3-2.8
		c-1.1-1-2.1-2.1-3.2-3.1c-0.9-0.9-1.7-1.9-2.5-2.9c-0.8-1-1.6-2-2.2-3C8.1,79.1,7,77.3,6,75.4c-1-1.9-1.8-3.9-2.6-5.9
		c-1.5-4-2.5-8.1-2.9-12.4c-0.2-1.6-0.3-3.1-0.4-4.7c0-0.1,0-0.1-0.1-0.2c0-0.5,0-1.1,0-1.6c0-0.6,0.1-1.1,0.1-1.7
		c0.1-2.6,0.5-5.3,1-7.8c0.5-2.6,1.1-5.1,2-7.5c0.7-2,1.6-3.9,2.4-5.8c1-2.1,2.2-4.1,3.6-6c0.7-1,1.4-1.9,2.1-2.8c0.8-1,1.7-2,2.6-3
		c1-1,1.9-2,3-3c1.1-1,2.2-2,3.4-2.9c1.4-1,2.8-2.1,4.3-2.9c1.8-1,3.6-2,5.5-2.9c2.9-1.3,5.9-2.2,9-2.9c4.6-1,9.2-1.6,13.9-1.2
		c3.1,0.2,6.1,0.6,9.1,1.4c3,0.8,6,1.6,8.8,3c1.9,0.9,3.7,1.8,5.5,2.9c1.5,1,3.1,1.9,4.4,3.1c0.4,0.3,0.8,0.6,1.2,1
		c1.7,1.5,3.4,3,4.9,4.7c0.8,1,1.7,1.9,2.4,2.9c0.8,1,1.5,2.1,2.3,3.1c1.3,1.8,2.4,3.8,3.3,5.8c0.9,1.9,1.8,3.9,2.4,6
		c0.6,1.9,1.1,3.9,1.6,5.9c0.7,2.8,1,5.6,1.2,8.5c0,0.7,0.1,1.4,0.2,2.1C100.1,51.2,100.1,51.7,100.1,52.3z"/>
</svg>
